<?xml version="1.0" encoding="utf-8"?>
<!-- Generator: Adobe Illustrator 20.1.0, SVG Export Plug-In . SVG Version: 6.00 Build 0)  -->
<svg version="1.1" id="Layer_1" xmlns="http://www.w3.org/2000/svg" xmlns:xlink="http://www.w3.org/1999/xlink" x="0px" y="0px"
	 viewBox="0 0 64 64" style="enable-background:new 0 0 64 64;" xml:space="preserve">
<style type="text/css">
	.st0{fill:#3A96DD;}
</style>
<g>
	<g>
		<path class="st0" d="M26,10.8V34v4h4h23.2C50.6,47.2,42,54,32.1,54c-12.2,0-22-9.9-22-22C10,22,16.8,13.4,26,10.8 M30,6
			C16.6,7,6,18.2,6,31.9C6,46.3,17.7,58,32.1,58C45.8,58,57,47.4,58,34H30V6L30,6z"/>
		<rect x="34.1" y="21.9" class="st0" width="4" height="8"/>
		<rect x="42.1" y="17.9" class="st0" width="4" height="12"/>
		<rect x="50.1" y="9.9" class="st0" width="4" height="20"/>
	</g>
</g>
</svg>
