<?xml version="1.0" encoding="utf-8"?>
<!-- Generator: Adobe Illustrator 20.1.0, SVG Export Plug-In . SVG Version: 6.00 Build 0)  -->
<svg version="1.1" id="Layer_1" xmlns="http://www.w3.org/2000/svg" xmlns:xlink="http://www.w3.org/1999/xlink" x="0px" y="0px"
	 viewBox="0 0 64 64" style="enable-background:new 0 0 64 64;" xml:space="preserve">
<style type="text/css">
	.st0{fill:#3A96DD;}
</style>
<g>
	<g>
		<path class="st0" d="M46,16c0-7.7-6.3-14-14-14S18,8.3,18,16s6.3,14,14,14S46,23.7,46,16z M32,26c-5.5,0-10-4.5-10-10S26.5,6,32,6
			s10,4.5,10,10S37.5,26,32,26z"/>
		<path class="st0" d="M36.7,38c-1.4,0-2.8,0.6-3.8,1.6L32,40.5l-0.9-0.9c-1-1-2.3-1.6-3.8-1.6c-1.4,0-2.8,0.6-3.8,1.6
			c-2.1,2.1-2.1,5.5,0,7.5l8.4,8.5l8.4-8.5c2.1-2.1,2.1-5.5,0-7.5C39.4,38.6,38.1,38,36.7,38z M37.6,44.3L32,49.9l-5.6-5.6
			c-0.5-0.5-0.5-1.4,0-1.9c0.3-0.3,0.6-0.4,0.9-0.4c0.4,0,0.7,0.1,0.9,0.4l0.9,0.9l2.8,2.9l2.8-2.9l0.9-0.9c0.3-0.3,0.6-0.4,0.9-0.4
			c0.4,0,0.7,0.1,0.9,0.4C38.1,42.9,38.1,43.8,37.6,44.3z"/>
		<path class="st0" d="M42,30H32H22c-6.6,0-12,5.4-12,12v20h4V42c0-4.4,3.6-8,8-8h20c4.4,0,8,3.6,8,8v20h4V42C54,35.4,48.6,30,42,30
			z"/>
	</g>
</g>
</svg>
