<svg xmlns="http://www.w3.org/2000/svg" xmlns:xlink="http://www.w3.org/1999/xlink" id="Layer_1" x="0" y="0" version="1.1" viewBox="0 0 64 64" xml:space="preserve" style="enable-background:new 0 0 64 64"><style type="text/css">.st0{fill:#59b4d9}.st1{opacity:.2;fill:#fff;enable-background:new}.st2{fill:#fcd116}.st3{opacity:.2;fill:#ff8c00;enable-background:new}.st4{fill:#7a7a7a}.st5{fill:#fff}.st6{opacity:.15;enable-background:new}</style><path d="M53.3,19.9c0-0.4,0.1-1,0.1-1.5c0-8-6.5-14.3-14.6-14.3C34.1,4,29.8,6.2,27.1,9.9c-1.7-1.1-3.7-1.7-5.8-1.7	c-6,0-11,4.9-11,10.9V20c-4,2.1-6.3,5.6-6.3,9.9c0,6.7,5.5,12,12.5,12h30.9c7.1,0,12.5-5.3,12.5-12C60,25.4,57.5,21.8,53.3,19.9z" class="st0"/><path d="M11.8,35.4c0-4.6,2.4-8.2,6.7-10.4V24c0-6.4,5.3-11.5,11.6-11.5c2.2,0,4.4,0.6,6.2,1.7	c2.8-3.9,7.5-6.4,12.5-6.4l0,0C46.2,5.5,42.8,4,38.8,4c-4.7,0-9.1,2.2-11.8,5.9c-1.7-1.1-3.7-1.7-5.8-1.7c-6,0-11,4.9-11,10.9V20	c-4,2.1-6.3,5.6-6.3,9.9c0,5.7,3.9,10.4,9.4,11.6C12.4,39.7,11.8,37.6,11.8,35.4z" class="st1"/><path d="M46.6,28.6L46.6,28.6v-0.3c0-6.9-5.9-12.6-13.1-12.6c-0.2-0.3-4.3,0.1-4.3,0.1l0,0c-6.5,0.8-11.6,6.2-11.6,12.6	c0,0.2-0.7,5.2,4.4,9.4c2.3,2,4.7,7.6,5.1,9.2l0.3,0.5h9.4l0.3-0.5c0.4-1.6,2.9-7.1,5.1-9.1C47.3,33.5,46.6,28.7,46.6,28.6z" class="st2"/><path d="M46.6,28.6L46.6,28.6v-0.3c0-6.9-5.9-12.6-13.1-12.6c-0.2-0.3-4.3,0.1-4.3,0.1l0,0c-6.5,0.8-11.6,6.2-11.6,12.6	c0,0.2-0.7,5.2,4.4,9.4c2.3,2,4.7,7.6,5.1,9.2l0.3,0.5h9.4l0.3-0.5c0.4-1.6,2.9-7.1,5.1-9.1C47.3,33.5,46.6,28.7,46.6,28.6z" class="st3"/><rect width="9.4" height="3" x="27.6" y="50.6" class="st4"/><polygon points="30.5 60 34 60 36.9 56.9 27.6 56.9" class="st4"/><path d="M36.1,24.3c0,2.1-1.7,3.9-3.9,3.9s-3.9-1.7-3.9-3.9c0-2.1,1.7-3.9,3.9-3.9S36.1,22.1,36.1,24.3" class="st5"/><polygon points="35 29.6 32.2 33.6 29.3 29.6 26.3 29.6 26.3 37.2 38 37.2 38 29.6" class="st5"/><g class="st6"><path d="M33.5,15.6c-0.2-0.3-4.3,0.1-4.3,0.1c-6.5,0.8-11.6,6.2-11.6,12.6c0,0.2-0.6,4.5,3.5,8.6l19.2-19.2 C38.4,16.4,36,15.6,33.5,15.6z" class="st5"/></g></svg>