<?xml version="1.0" encoding="utf-8"?>
<!-- Generator: Adobe Illustrator 20.1.0, SVG Export Plug-In . SVG Version: 6.00 Build 0)  -->
<svg version="1.1" id="Layer_1" xmlns="http://www.w3.org/2000/svg" xmlns:xlink="http://www.w3.org/1999/xlink" x="0px" y="0px"
	 viewBox="0 0 64 64" style="enable-background:new 0 0 64 64;" xml:space="preserve">
<style type="text/css">
	.st0{fill:#3A96DD;}
</style>
<g>
	<polygon class="st0" points="18,60 22,60 22,21.2 18,24.9 	"/>
	<polygon class="st0" points="10,60 14,60 14,28.6 10,32.4 	"/>
	<polygon class="st0" points="26,60 30,60 30,28 26,24.6 	"/>
	<polygon class="st0" points="34,60 38,60 38,34.8 34,31.4 	"/>
	<polygon class="st0" points="42,60 46,60 46,26.8 42,30.8 	"/>
	<polygon class="st0" points="50,60 54,60 54,18.8 50,22.8 	"/>
	<polygon class="st0" points="58,4 48,4 48,8 54,8 38,24 22,10.8 2,29.2 4.7,31.9 4.8,32 22,16 38,29.7 58,9.7 58,18 62,18 62,8 
		62,4 	"/>
</g>
</svg>
