<?xml version="1.0" encoding="utf-8"?>
<!-- Generator: Adobe Illustrator 20.1.0, SVG Export Plug-In . SVG Version: 6.00 Build 0)  -->
<svg version="1.1" id="Layer_1" xmlns="http://www.w3.org/2000/svg" xmlns:xlink="http://www.w3.org/1999/xlink" x="0px" y="0px"
	 viewBox="0 0 64 64" style="enable-background:new 0 0 64 64;" xml:space="preserve">
<style type="text/css">
	.st0{fill:#3A96DD;}
</style>
<g>
	<path class="st0" d="M30,10v8H14L2,30v4v12h8c0,4.4,3.6,8,8,8s8-3.6,8-8h4h4h4c0,4.4,3.6,8,8,8s8-3.6,8-8h8V10H30z M15.7,22H18v8
		H7.7L15.7,22z M18,50c-2.2,0-4-1.8-4-4c0-2.2,1.8-4,4-4s4,1.8,4,4C22,48.2,20.2,50,18,50z M30,42h-5.1c-1.4-2.4-3.9-4-6.9-4
		s-5.5,1.6-6.9,4H6v-8h12h4v-4v-8h8V42z M46,50c-2.2,0-4-1.8-4-4c0-2.2,1.8-4,4-4s4,1.8,4,4C50,48.2,48.2,50,46,50z M58,42h-5.1
		c-1.4-2.4-3.9-4-6.9-4c-3,0-5.5,1.6-6.9,4H34V18v-4h24V42z"/>
</g>
</svg>
