<svg xmlns="http://www.w3.org/2000/svg" xmlns:xlink="http://www.w3.org/1999/xlink" id="Layer_1" x="0" y="0" version="1.1" viewBox="0 0 64 64" xml:space="preserve" style="enable-background:new 0 0 64 64"><style type="text/css">.st0{fill:#3a96dd}</style><g><g><path d="M26,10.8V34v4h4h23.2C50.6,47.2,42,54,32.1,54c-12.2,0-22-9.9-22-22C10,22,16.8,13.4,26,10.8 M30,6 C16.6,7,6,18.2,6,31.9C6,46.3,17.7,58,32.1,58C45.8,58,57,47.4,58,34H30V6L30,6z" class="st0"/><rect width="4" height="8" x="34.1" y="21.9" class="st0"/><rect width="4" height="12" x="42.1" y="17.9" class="st0"/><rect width="4" height="20" x="50.1" y="9.9" class="st0"/></g></g></svg>